<?xml version="1.0" encoding="UTF-8" standalone="no"?>
<!DOCTYPE svg PUBLIC "-//W3C//DTD SVG 1.1//EN"
 "http://www.w3.org/Graphics/SVG/1.1/DTD/svg11.dtd">
<!-- Generated by graphviz version 12.1.2 (20240928.0832)
 -->
<!-- Pages: 1 -->
<svg width="864pt" height="551pt"
 viewBox="0.00 0.00 864.00 551.08" xmlns="http://www.w3.org/2000/svg" xmlns:xlink="http://www.w3.org/1999/xlink">
<g id="graph0" class="graph" transform="scale(0.869215 0.869215) rotate(0) translate(4 630)">
<polygon fill="white" stroke="none" points="-4,4 -4,-630 990,-630 990,4 -4,4"/>
<text text-anchor="middle" x="493" y="-73.2" font-family="Times New Roman,serif" font-size="14.00">Legend: </text>
<text text-anchor="middle" x="493" y="-56.7" font-family="Times New Roman,serif" font-size="14.00">Yes = Proceed (iff Life &gt; 0), </text>
<text text-anchor="middle" x="493" y="-40.2" font-family="Times New Roman,serif" font-size="14.00">No = Stay (Loses 1 Life), </text>
<text text-anchor="middle" x="493" y="-23.7" font-family="Times New Roman,serif" font-size="14.00">GameOver = Life == 0, </text>
<text text-anchor="middle" x="493" y="-7.2" font-family="Times New Roman,serif" font-size="14.00">TryAgain = Life == 3</text>
<!-- q0 -->
<g id="node1" class="node">
<title>q0</title>
<ellipse fill="none" stroke="black" cx="151.5" cy="-228.5" rx="18" ry="18"/>
<text text-anchor="middle" x="151.5" y="-223.45" font-family="Times New Roman,serif" font-size="14.00">q0</text>
</g>
<!-- q0&#45;&gt;q0 -->
<g id="edge3" class="edge">
<title>q0&#45;&gt;q0</title>
<path fill="none" stroke="black" d="M142.48,-244.53C136.47,-262.25 139.48,-282.5 151.5,-282.5 161.08,-282.5 164.94,-269.64 163.06,-255.45"/>
<polygon fill="black" stroke="black" points="166.54,-254.95 160.86,-246.01 159.72,-256.54 166.54,-254.95"/>
<text text-anchor="middle" x="151.5" y="-285.7" font-family="Times New Roman,serif" font-size="14.00">No</text>
</g>
<!-- q1 -->
<g id="node2" class="node">
<title>q1</title>
<ellipse fill="none" stroke="black" cx="279.75" cy="-319.5" rx="18" ry="18"/>
<text text-anchor="middle" x="279.75" y="-314.45" font-family="Times New Roman,serif" font-size="14.00">q1</text>
</g>
<!-- q0&#45;&gt;q1 -->
<g id="edge2" class="edge">
<title>q0&#45;&gt;q1</title>
<path fill="none" stroke="black" d="M166.49,-238.59C188.01,-254.1 229.47,-283.98 255.53,-302.76"/>
<polygon fill="black" stroke="black" points="253.31,-305.48 263.47,-308.48 257.4,-299.8 253.31,-305.48"/>
<text text-anchor="middle" x="215.62" y="-282.65" font-family="Times New Roman,serif" font-size="14.00">Yes</text>
</g>
<!-- q5 -->
<g id="node6" class="node">
<title>q5</title>
<ellipse fill="none" stroke="black" cx="964" cy="-393.5" rx="18" ry="18"/>
<ellipse fill="none" stroke="black" cx="964" cy="-393.5" rx="22" ry="22"/>
<text text-anchor="middle" x="964" y="-388.45" font-family="Times New Roman,serif" font-size="14.00">q5</text>
</g>
<!-- q0&#45;&gt;q5 -->
<g id="edge12" class="edge">
<title>q0&#45;&gt;q5</title>
<path fill="none" stroke="black" d="M169.65,-228.5C193.94,-228.5 239.74,-228.5 278.75,-228.5 278.75,-228.5 278.75,-228.5 781,-228.5 860.7,-228.5 921.02,-316.42 947.79,-363.9"/>
<polygon fill="black" stroke="black" points="944.68,-365.51 952.55,-372.6 950.82,-362.15 944.68,-365.51"/>
<text text-anchor="middle" x="492" y="-231.7" font-family="Times New Roman,serif" font-size="14.00">GameOver</text>
</g>
<!-- q1&#45;&gt;q1 -->
<g id="edge5" class="edge">
<title>q1&#45;&gt;q1</title>
<path fill="none" stroke="black" d="M270.73,-335.53C264.72,-353.25 267.73,-373.5 279.75,-373.5 289.33,-373.5 293.19,-360.64 291.31,-346.45"/>
<polygon fill="black" stroke="black" points="294.79,-345.95 289.11,-337.01 287.97,-347.54 294.79,-345.95"/>
<text text-anchor="middle" x="279.75" y="-376.7" font-family="Times New Roman,serif" font-size="14.00">No</text>
</g>
<!-- q2 -->
<g id="node3" class="node">
<title>q2</title>
<ellipse fill="none" stroke="black" cx="408" cy="-393.5" rx="18" ry="18"/>
<text text-anchor="middle" x="408" y="-388.45" font-family="Times New Roman,serif" font-size="14.00">q2</text>
</g>
<!-- q1&#45;&gt;q2 -->
<g id="edge4" class="edge">
<title>q1&#45;&gt;q2</title>
<path fill="none" stroke="black" d="M295.73,-328.28C317.08,-340.8 356.54,-363.92 382.27,-379.01"/>
<polygon fill="black" stroke="black" points="380.34,-381.93 390.74,-383.97 383.88,-375.89 380.34,-381.93"/>
<text text-anchor="middle" x="343.88" y="-364.13" font-family="Times New Roman,serif" font-size="14.00">Yes</text>
</g>
<!-- q1&#45;&gt;q5 -->
<g id="edge13" class="edge">
<title>q1&#45;&gt;q5</title>
<path fill="none" stroke="black" d="M297.9,-319.5C322.19,-319.5 367.99,-319.5 407,-319.5 407,-319.5 407,-319.5 781,-319.5 839.67,-319.5 901.67,-352.91 936.03,-374.83"/>
<polygon fill="black" stroke="black" points="933.82,-377.57 944.11,-380.12 937.66,-371.71 933.82,-377.57"/>
<text text-anchor="middle" x="588" y="-322.7" font-family="Times New Roman,serif" font-size="14.00">GameOver</text>
</g>
<!-- q2&#45;&gt;q2 -->
<g id="edge7" class="edge">
<title>q2&#45;&gt;q2</title>
<path fill="none" stroke="black" d="M398.98,-409.53C392.97,-427.25 395.98,-447.5 408,-447.5 417.58,-447.5 421.44,-434.64 419.56,-420.45"/>
<polygon fill="black" stroke="black" points="423.04,-419.95 417.36,-411.01 416.22,-421.54 423.04,-419.95"/>
<text text-anchor="middle" x="408" y="-450.7" font-family="Times New Roman,serif" font-size="14.00">No</text>
</g>
<!-- q3 -->
<g id="node4" class="node">
<title>q3</title>
<ellipse fill="none" stroke="black" cx="588" cy="-484.5" rx="18" ry="18"/>
<text text-anchor="middle" x="588" y="-479.45" font-family="Times New Roman,serif" font-size="14.00">q3</text>
</g>
<!-- q2&#45;&gt;q3 -->
<g id="edge6" class="edge">
<title>q2&#45;&gt;q3</title>
<path fill="none" stroke="black" d="M424.27,-401.66C434.83,-407.29 449.24,-414.91 462,-421.5 496.24,-439.17 536.01,-459.12 561.33,-471.74"/>
<polygon fill="black" stroke="black" points="559.69,-474.84 570.2,-476.16 562.81,-468.57 559.69,-474.84"/>
<text text-anchor="middle" x="492" y="-454.27" font-family="Times New Roman,serif" font-size="14.00">Yes</text>
</g>
<!-- q2&#45;&gt;q5 -->
<g id="edge14" class="edge">
<title>q2&#45;&gt;q5</title>
<path fill="none" stroke="black" d="M426.5,-393.5C505.14,-393.5 826.58,-393.5 930.46,-393.5"/>
<polygon fill="black" stroke="black" points="930.23,-397 940.23,-393.5 930.23,-390 930.23,-397"/>
<text text-anchor="middle" x="684" y="-396.7" font-family="Times New Roman,serif" font-size="14.00">GameOver</text>
</g>
<!-- q3&#45;&gt;q3 -->
<g id="edge9" class="edge">
<title>q3&#45;&gt;q3</title>
<path fill="none" stroke="black" d="M575.85,-498.06C565.11,-516.31 569.16,-538.5 588,-538.5 603.31,-538.5 608.85,-523.85 604.63,-508.57"/>
<polygon fill="black" stroke="black" points="607.88,-507.27 600.74,-499.45 601.45,-510.02 607.88,-507.27"/>
<text text-anchor="middle" x="588" y="-541.7" font-family="Times New Roman,serif" font-size="14.00">No</text>
</g>
<!-- q4 -->
<g id="node5" class="node">
<title>q4</title>
<ellipse fill="none" stroke="black" cx="780" cy="-555.5" rx="18" ry="18"/>
<text text-anchor="middle" x="780" y="-550.45" font-family="Times New Roman,serif" font-size="14.00">q4</text>
</g>
<!-- q3&#45;&gt;q4 -->
<g id="edge8" class="edge">
<title>q3&#45;&gt;q4</title>
<path fill="none" stroke="black" d="M605.27,-490.83C618.4,-495.93 637.37,-503.24 654,-509.5 687.78,-522.21 726.84,-536.52 752.18,-545.76"/>
<polygon fill="black" stroke="black" points="750.77,-548.97 761.37,-549.1 753.17,-542.39 750.77,-548.97"/>
<text text-anchor="middle" x="684" y="-534.3" font-family="Times New Roman,serif" font-size="14.00">Yes</text>
</g>
<!-- q3&#45;&gt;q5 -->
<g id="edge15" class="edge">
<title>q3&#45;&gt;q5</title>
<path fill="none" stroke="black" d="M606.25,-482.67C654.6,-477.21 795.19,-459.01 906,-421.5 915.43,-418.31 925.3,-413.88 934.12,-409.5"/>
<polygon fill="black" stroke="black" points="935.65,-412.64 942.93,-404.94 932.44,-406.43 935.65,-412.64"/>
<text text-anchor="middle" x="780" y="-463.33" font-family="Times New Roman,serif" font-size="14.00">GameOver</text>
</g>
<!-- q4&#45;&gt;q4 -->
<g id="edge11" class="edge">
<title>q4&#45;&gt;q4</title>
<path fill="none" stroke="black" d="M767.85,-569.06C757.11,-587.31 761.16,-609.5 780,-609.5 795.31,-609.5 800.85,-594.85 796.63,-579.57"/>
<polygon fill="black" stroke="black" points="799.88,-578.27 792.74,-570.45 793.45,-581.02 799.88,-578.27"/>
<text text-anchor="middle" x="780" y="-612.7" font-family="Times New Roman,serif" font-size="14.00">No</text>
</g>
<!-- q4&#45;&gt;q5 -->
<g id="edge10" class="edge">
<title>q4&#45;&gt;q5</title>
<path fill="none" stroke="black" d="M796.97,-562.23C822.6,-571.85 873.34,-585.95 906,-562.5 948.85,-531.73 959.91,-467.06 962.52,-427.24"/>
<polygon fill="black" stroke="black" points="966.01,-427.42 963.01,-417.26 959.02,-427.08 966.01,-427.42"/>
<text text-anchor="middle" x="876" y="-578.5" font-family="Times New Roman,serif" font-size="14.00">Yes</text>
</g>
<!-- q4&#45;&gt;q5 -->
<g id="edge16" class="edge">
<title>q4&#45;&gt;q5</title>
<path fill="none" stroke="black" d="M797.42,-550.38C827.39,-540.79 889.41,-519.7 906,-504.5 929.4,-483.05 944.69,-449.78 953.49,-425.25"/>
<polygon fill="black" stroke="black" points="956.69,-426.7 956.59,-416.11 950.06,-424.45 956.69,-426.7"/>
<text text-anchor="middle" x="876" y="-535.72" font-family="Times New Roman,serif" font-size="14.00">GameOver</text>
</g>
<!-- q5&#45;&gt;q0 -->
<g id="edge17" class="edge">
<title>q5&#45;&gt;q0</title>
<path fill="none" stroke="black" d="M959.27,-371.53C952.96,-339.63 937.63,-279.91 906,-239.5 864.59,-186.59 848.18,-154.5 781,-154.5 278.75,-154.5 278.75,-154.5 278.75,-154.5 236.4,-154.5 195.67,-185.88 172.41,-207.77"/>
<polygon fill="black" stroke="black" points="170.17,-205.06 165.46,-214.55 175.06,-210.07 170.17,-205.06"/>
<text text-anchor="middle" x="492" y="-157.7" font-family="Times New Roman,serif" font-size="14.00">TryAgain</text>
</g>
<g id="node7" class="node">
<title></title>
</g>
<!-- &#45;&gt;q0 -->
<g id="edge1" class="edge">
<title>&#45;&gt;q0</title>
<path fill="none" stroke="red" stroke-width="5" d="M35.92,-228.5C56.32,-228.5 91.1,-228.5 117,-228.5"/>
<polygon fill="red" stroke="red" stroke-width="5" points="116.99,-232.88 126.99,-228.5 116.99,-224.13 116.99,-232.88"/>
<text text-anchor="middle" x="84.75" y="-231.7" font-family="Times New Roman,serif" font-size="14.00" fill="red">Start</text>
</g>
</g>
</svg>
