<?xml version="1.0" encoding="UTF-8" standalone="no"?>
<!DOCTYPE svg PUBLIC "-//W3C//DTD SVG 1.1//EN"
 "http://www.w3.org/Graphics/SVG/1.1/DTD/svg11.dtd">
<!-- Generated by graphviz version 12.1.2 (20240928.0832)
 -->
<!-- Pages: 1 -->
<svg width="859pt" height="290pt"
 viewBox="0.00 0.00 859.00 289.50" xmlns="http://www.w3.org/2000/svg" xmlns:xlink="http://www.w3.org/1999/xlink">
<g id="graph0" class="graph" transform="scale(1 1) rotate(0) translate(4 285.5)">
<polygon fill="white" stroke="none" points="-4,4 -4,-285.5 855,-285.5 855,4 -4,4"/>
<text text-anchor="middle" x="425.5" y="-56.7" font-family="Times New Roman,serif" font-size="14.00">Legend: </text>
<text text-anchor="middle" x="425.5" y="-40.2" font-family="Times New Roman,serif" font-size="14.00">Yes = Proceed (iff Life &gt; 0), </text>
<text text-anchor="middle" x="425.5" y="-23.7" font-family="Times New Roman,serif" font-size="14.00">No = Stay (Loses 1 Life), </text>
<text text-anchor="middle" x="425.5" y="-7.2" font-family="Times New Roman,serif" font-size="14.00">TryAgain = Reset</text>
<!-- q0 -->
<g id="node1" class="node">
<title>q0</title>
<ellipse fill="none" stroke="black" cx="151.5" cy="-168" rx="18" ry="18"/>
<text text-anchor="middle" x="151.5" y="-162.95" font-family="Times New Roman,serif" font-size="14.00">q0</text>
</g>
<!-- q0&#45;&gt;q0 -->
<g id="edge3" class="edge">
<title>q0&#45;&gt;q0</title>
<path fill="none" stroke="blue" stroke-width="2" d="M142.48,-184.03C136.47,-201.75 139.48,-222 151.5,-222 160.71,-222 164.62,-210.13 163.26,-196.61"/>
<polygon fill="blue" stroke="blue" stroke-width="2" points="166.71,-196.01 161.16,-186.99 159.87,-197.5 166.71,-196.01"/>
<text text-anchor="middle" x="151.5" y="-225.2" font-family="Times New Roman,serif" font-size="14.00">No</text>
</g>
<!-- q1 -->
<g id="node2" class="node">
<title>q1</title>
<ellipse fill="none" stroke="black" cx="279.75" cy="-211" rx="18" ry="18"/>
<text text-anchor="middle" x="279.75" y="-205.95" font-family="Times New Roman,serif" font-size="14.00">q1</text>
</g>
<!-- q0&#45;&gt;q1 -->
<g id="edge2" class="edge">
<title>q0&#45;&gt;q1</title>
<path fill="none" stroke="blue" stroke-width="2" d="M169,-173.62C189.61,-180.64 225.19,-192.76 250.24,-201.29"/>
<polygon fill="blue" stroke="blue" stroke-width="2" points="248.78,-204.49 259.38,-204.4 251.04,-197.86 248.78,-204.49"/>
<text text-anchor="middle" x="215.62" y="-195.27" font-family="Times New Roman,serif" font-size="14.00">Yes</text>
</g>
<!-- q1&#45;&gt;q1 -->
<g id="edge5" class="edge">
<title>q1&#45;&gt;q1</title>
<path fill="none" stroke="blue" stroke-width="2" d="M270.73,-227.03C264.72,-244.75 267.73,-265 279.75,-265 288.96,-265 292.87,-253.13 291.51,-239.61"/>
<polygon fill="blue" stroke="blue" stroke-width="2" points="294.96,-239.01 289.41,-229.99 288.12,-240.5 294.96,-239.01"/>
<text text-anchor="middle" x="279.75" y="-268.2" font-family="Times New Roman,serif" font-size="14.00">No</text>
</g>
<!-- q2 -->
<g id="node3" class="node">
<title>q2</title>
<ellipse fill="none" stroke="black" cx="408" cy="-211" rx="18" ry="18"/>
<text text-anchor="middle" x="408" y="-205.95" font-family="Times New Roman,serif" font-size="14.00">q2</text>
</g>
<!-- q1&#45;&gt;q2 -->
<g id="edge4" class="edge">
<title>q1&#45;&gt;q2</title>
<path fill="none" stroke="blue" stroke-width="2" d="M298.04,-211C318.23,-211 352,-211 376.6,-211"/>
<polygon fill="blue" stroke="blue" stroke-width="2" points="376.49,-214.5 386.49,-211 376.49,-207.5 376.49,-214.5"/>
<text text-anchor="middle" x="343.88" y="-214.2" font-family="Times New Roman,serif" font-size="14.00">Yes</text>
</g>
<!-- q2&#45;&gt;q2 -->
<g id="edge7" class="edge">
<title>q2&#45;&gt;q2</title>
<path fill="none" stroke="blue" stroke-width="2" d="M398.98,-227.03C392.97,-244.75 395.98,-265 408,-265 417.21,-265 421.12,-253.13 419.76,-239.61"/>
<polygon fill="blue" stroke="blue" stroke-width="2" points="423.21,-239.01 417.66,-229.99 416.37,-240.5 423.21,-239.01"/>
<text text-anchor="middle" x="408" y="-268.2" font-family="Times New Roman,serif" font-size="14.00">No</text>
</g>
<!-- q3 -->
<g id="node4" class="node">
<title>q3</title>
<ellipse fill="none" stroke="black" cx="568.5" cy="-211" rx="18" ry="18"/>
<text text-anchor="middle" x="568.5" y="-205.95" font-family="Times New Roman,serif" font-size="14.00">q3</text>
</g>
<!-- q2&#45;&gt;q3 -->
<g id="edge6" class="edge">
<title>q2&#45;&gt;q3</title>
<path fill="none" stroke="blue" stroke-width="2" d="M426.26,-211C452.94,-211 504.53,-211 537.43,-211"/>
<polygon fill="blue" stroke="blue" stroke-width="2" points="537.23,-214.5 547.23,-211 537.23,-207.5 537.23,-214.5"/>
<text text-anchor="middle" x="488.25" y="-214.2" font-family="Times New Roman,serif" font-size="14.00">Yes</text>
</g>
<!-- q3&#45;&gt;q3 -->
<g id="edge9" class="edge">
<title>q3&#45;&gt;q3</title>
<path fill="none" stroke="blue" stroke-width="2" d="M559.48,-227.03C553.47,-244.75 556.48,-265 568.5,-265 577.71,-265 581.62,-253.13 580.26,-239.61"/>
<polygon fill="blue" stroke="blue" stroke-width="2" points="583.71,-239.01 578.16,-229.99 576.87,-240.5 583.71,-239.01"/>
<text text-anchor="middle" x="568.5" y="-268.2" font-family="Times New Roman,serif" font-size="14.00">No</text>
</g>
<!-- q4 -->
<g id="node5" class="node">
<title>q4</title>
<ellipse fill="none" stroke="black" cx="696.75" cy="-211" rx="18" ry="18"/>
<text text-anchor="middle" x="696.75" y="-205.95" font-family="Times New Roman,serif" font-size="14.00">q4</text>
</g>
<!-- q3&#45;&gt;q4 -->
<g id="edge8" class="edge">
<title>q3&#45;&gt;q4</title>
<path fill="none" stroke="blue" stroke-width="2" d="M586.79,-211C606.98,-211 640.75,-211 665.35,-211"/>
<polygon fill="blue" stroke="blue" stroke-width="2" points="665.24,-214.5 675.24,-211 665.24,-207.5 665.24,-214.5"/>
<text text-anchor="middle" x="632.62" y="-214.2" font-family="Times New Roman,serif" font-size="14.00">Yes</text>
</g>
<!-- q4&#45;&gt;q4 -->
<g id="edge11" class="edge">
<title>q4&#45;&gt;q4</title>
<path fill="none" stroke="blue" stroke-width="2" d="M687.73,-227.03C681.72,-244.75 684.73,-265 696.75,-265 705.96,-265 709.87,-253.13 708.51,-239.61"/>
<polygon fill="blue" stroke="blue" stroke-width="2" points="711.96,-239.01 706.41,-229.99 705.12,-240.5 711.96,-239.01"/>
<text text-anchor="middle" x="696.75" y="-268.2" font-family="Times New Roman,serif" font-size="14.00">No</text>
</g>
<!-- q5 -->
<g id="node6" class="node">
<title>q5</title>
<ellipse fill="none" stroke="black" cx="829" cy="-168" rx="18" ry="18"/>
<ellipse fill="none" stroke="black" cx="829" cy="-168" rx="22" ry="22"/>
<text text-anchor="middle" x="829" y="-162.95" font-family="Times New Roman,serif" font-size="14.00">q5</text>
</g>
<!-- q4&#45;&gt;q5 -->
<g id="edge10" class="edge">
<title>q4&#45;&gt;q5</title>
<path fill="none" stroke="blue" stroke-width="2" d="M714.25,-205.55C734.63,-198.83 769.76,-187.23 795.61,-178.69"/>
<polygon fill="blue" stroke="blue" stroke-width="2" points="796.52,-182.08 804.92,-175.62 794.33,-175.43 796.52,-182.08"/>
<text text-anchor="middle" x="760.88" y="-196.55" font-family="Times New Roman,serif" font-size="14.00">Yes</text>
</g>
<!-- q5&#45;&gt;q0 -->
<g id="edge12" class="edge">
<title>q5&#45;&gt;q0</title>
<path fill="none" stroke="blue" stroke-width="2" d="M808.02,-160.43C782.74,-151.54 737.66,-138 697.75,-138 278.75,-138 278.75,-138 278.75,-138 244.22,-138 205.78,-148.76 180.49,-157.39"/>
<polygon fill="blue" stroke="blue" stroke-width="2" points="179.65,-153.97 171.4,-160.62 182,-160.56 179.65,-153.97"/>
<text text-anchor="middle" x="488.25" y="-141.2" font-family="Times New Roman,serif" font-size="14.00">TryAgain</text>
</g>
<g id="node7" class="node">
<title></title>
</g>
<!-- &#45;&gt;q0 -->
<g id="edge1" class="edge">
<title>&#45;&gt;q0</title>
<path fill="none" stroke="red" stroke-width="5" d="M35.92,-168C56.32,-168 91.1,-168 117,-168"/>
<polygon fill="red" stroke="red" stroke-width="5" points="116.99,-172.38 126.99,-168 116.99,-163.63 116.99,-172.38"/>
<text text-anchor="middle" x="84.75" y="-171.2" font-family="Times New Roman,serif" font-size="14.00" fill="red">Start</text>
</g>
</g>
</svg>
